<svg width="32" height="32" viewBox="0 0 32 32" fill="none" xmlns="http://www.w3.org/2000/svg">
<path d="M8 16C8 11.5817 11.5817 8 16 8C20.4183 8 24 11.5817 24 16C24 20.4183 20.4183 24 16 24C11.5817 24 8 20.4183 8 16Z" fill="#6876F4"/>
<path d="M15.1609 18.0407L13.7111 16.6609C13.633 16.5866 13.527 16.5448 13.4166 16.5448C13.3061 16.5448 13.2001 16.5866 13.122 16.6609C13.0439 16.7353 13 16.8361 13 16.9413C13 16.9933 13.0108 17.0449 13.0317 17.093C13.0526 17.1411 13.0833 17.1848 13.122 17.2216L14.8685 18.8837C15.0314 19.0388 15.2946 19.0388 15.4576 18.8837L19.878 14.6768C19.9561 14.6024 20 14.5016 20 14.3964C20 14.2913 19.9561 14.1905 19.878 14.1161C19.7999 14.0418 19.6939 14 19.5834 14C19.473 14 19.367 14.0418 19.2889 14.1161L15.1609 18.0407Z" fill="white"/>
</svg>
