<svg width="48" height="48" viewBox="0 0 48 48" fill="none" xmlns="http://www.w3.org/2000/svg">
<path d="M7.5 14.375C7.5 12.5516 8.22433 10.803 9.51364 9.51364C10.803 8.22433 12.5516 7.5 14.375 7.5H33.625C35.4484 7.5 37.197 8.22433 38.4864 9.51364C39.7757 10.803 40.5 12.5516 40.5 14.375V33.625C40.5 35.4484 39.7757 37.197 38.4864 38.4864C37.197 39.7757 35.4484 40.5 33.625 40.5H14.375C12.5516 40.5 10.803 39.7757 9.51364 38.4864C8.22433 37.197 7.5 35.4484 7.5 33.625V14.375ZM25.375 30.875C25.375 31.2397 25.5199 31.5894 25.7777 31.8473C26.0356 32.1051 26.3853 32.25 26.75 32.25H32.9375C33.3022 32.25 33.6519 32.1051 33.9098 31.8473C34.1676 31.5894 34.3125 31.2397 34.3125 30.875C34.3125 30.5103 34.1676 30.1606 33.9098 29.9027C33.6519 29.6449 33.3022 29.5 32.9375 29.5H26.75C26.3853 29.5 26.0356 29.6449 25.7777 29.9027C25.5199 30.1606 25.375 30.5103 25.375 30.875ZM26.75 18.5C26.3853 18.5 26.0356 18.6449 25.7777 18.9027C25.5199 19.1606 25.375 19.5103 25.375 19.875C25.375 20.2397 25.5199 20.5894 25.7777 20.8473C26.0356 21.1051 26.3853 21.25 26.75 21.25H32.9375C33.3022 21.25 33.6519 21.1051 33.9098 20.8473C34.1676 20.5894 34.3125 20.2397 34.3125 19.875C34.3125 19.5103 34.1676 19.1606 33.9098 18.9027C33.6519 18.6449 33.3022 18.5 32.9375 18.5H26.75ZM22.2235 27.1515C22.0958 27.0235 21.944 26.9219 21.777 26.8525C21.6099 26.7832 21.4309 26.7475 21.25 26.7475C21.0691 26.7475 20.8901 26.7832 20.723 26.8525C20.556 26.9219 20.4042 27.0235 20.2765 27.1515L17.125 30.3057L16.0415 29.2195C15.7837 28.9613 15.4338 28.8161 15.069 28.8159C14.7041 28.8156 14.3541 28.9603 14.0959 29.2181C13.8377 29.4759 13.6925 29.8258 13.6922 30.1907C13.692 30.5555 13.8367 30.9056 14.0945 31.1637L16.1515 33.2235C16.2792 33.3515 16.431 33.4531 16.598 33.5225C16.7651 33.5918 16.9441 33.6275 17.125 33.6275C17.3059 33.6275 17.4849 33.5918 17.652 33.5225C17.819 33.4531 17.9708 33.3515 18.0985 33.2235L22.2235 29.0985C22.3515 28.9708 22.4531 28.819 22.5225 28.652C22.5918 28.4849 22.6275 28.3059 22.6275 28.125C22.6275 27.9441 22.5918 27.7651 22.5225 27.598C22.4531 27.431 22.3515 27.2792 22.2235 27.1515ZM22.2235 18.0985C22.3513 17.9707 22.4528 17.8189 22.5219 17.6519C22.5911 17.4848 22.6267 17.3058 22.6267 17.125C22.6267 16.9442 22.5911 16.7652 22.5219 16.5981C22.4528 16.4311 22.3513 16.2793 22.2235 16.1515C22.0957 16.0237 21.9439 15.9222 21.7769 15.8531C21.6098 15.7839 21.4308 15.7483 21.25 15.7483C21.0692 15.7483 20.8902 15.7839 20.7231 15.8531C20.5561 15.9222 20.4043 16.0237 20.2765 16.1515L17.125 19.3058L16.0415 18.2195C15.7833 17.9613 15.4331 17.8163 15.068 17.8163C14.7029 17.8163 14.3527 17.9613 14.0945 18.2195C13.8363 18.4777 13.6913 18.8279 13.6913 19.193C13.6913 19.5581 13.8363 19.9083 14.0945 20.1665L16.1515 22.2235C16.2792 22.3515 16.431 22.4531 16.598 22.5225C16.7651 22.5918 16.9441 22.6275 17.125 22.6275C17.3059 22.6275 17.4849 22.5918 17.652 22.5225C17.819 22.4531 17.9708 22.3515 18.0985 22.2235L22.2235 18.0985Z" fill="#6876F4"/>
</svg>
