<svg width="48" height="48" viewBox="0 0 48 48" fill="none" xmlns="http://www.w3.org/2000/svg">
<path d="M27.4613 9.85251C24.4227 11.1286 22.425 13.9335 22.3224 17.1394L22.3191 17.4422L21.9105 17.4039C17.8882 16.9564 14.3468 14.8885 11.9152 11.5295C11.7506 11.3018 11.5305 11.119 11.2755 10.9978C11.0204 10.8767 10.7386 10.8212 10.456 10.8364C10.1735 10.8517 9.89947 10.9372 9.65925 11.0851C9.41903 11.233 9.22041 11.4385 9.08179 11.6826L8.91868 11.992L8.83628 12.1567C7.62724 14.6273 6.83522 17.6302 7.12613 20.8128L7.17658 21.267C7.65246 25.0319 9.69893 28.2794 13.5312 30.715L13.8221 30.893L13.6859 30.9645C11.4747 32.0676 9.45174 32.5484 7.25057 32.4618C5.47483 32.3953 4.81902 34.7444 6.37951 35.5862C12.4298 38.8487 18.9257 39.8552 24.527 38.2481C31.3541 36.285 36.5535 31.2224 38.5428 24.2183L38.7564 23.3948C39.1566 21.7428 39.3819 20.0575 39.4307 18.3639L39.4357 17.8115L40.0966 16.5155L40.8365 15.0814L41.1963 14.3594L41.3948 13.9485C41.8404 13.0085 42.1616 12.2299 42.36 11.5694L42.3835 11.4763L42.397 11.4463C42.7669 10.4598 42.1178 9.18704 40.8146 9.18704L40.6095 9.19869C40.4766 9.21484 40.3462 9.24668 40.221 9.29352L40.0764 9.35674C39.5965 9.58731 39.1023 9.78735 38.5966 9.95566L37.998 10.147L37.5423 10.2801L36.2441 10.6361C33.9976 8.77612 30.9573 8.54986 27.8161 9.71443L27.4613 9.85251Z" fill="#505054"/>
</svg>
