<svg width="48" height="48" viewBox="0 0 48 48" fill="none" xmlns="http://www.w3.org/2000/svg">
<path d="M16.922 32.0117L9.25878 24.8369C8.84586 24.4503 8.28581 24.2331 7.70184 24.2331C7.11788 24.2331 6.55783 24.4503 6.1449 24.8369C5.73198 25.2235 5.5 25.7479 5.5 26.2946C5.5 26.5653 5.55695 26.8334 5.66761 27.0835C5.77826 27.3336 5.94044 27.5609 6.1449 27.7523L15.3761 36.3952C16.2374 37.2016 17.6287 37.2016 18.49 36.3952L41.8551 14.5192C42.268 14.1326 42.5 13.6083 42.5 13.0615C42.5 12.5148 42.268 11.9904 41.8551 11.6038C41.4422 11.2172 40.8821 11 40.2982 11C39.7142 11 39.1541 11.2172 38.7412 11.6038L16.922 32.0117Z" fill="white"/>
</svg>
