<svg width="17" height="17" viewBox="0 0 17 17" fill="none" xmlns="http://www.w3.org/2000/svg">
<path d="M5.43925 11.8896L2.12542 8.85408C1.94686 8.69051 1.70467 8.59862 1.45215 8.59862C1.19962 8.59862 0.95744 8.69051 0.778878 8.85408C0.600315 9.01764 0.5 9.23948 0.5 9.4708C0.5 9.58534 0.524628 9.69875 0.572478 9.80457C0.620328 9.91039 0.690463 10.0065 0.778878 10.0875L4.77075 13.7441C5.1432 14.0853 5.74484 14.0853 6.11729 13.7441L16.2211 4.4889C16.3997 4.32534 16.5 4.10349 16.5 3.87218C16.5 3.64086 16.3997 3.41902 16.2211 3.25546C16.0426 3.09189 15.8004 3 15.5479 3C15.2953 3 15.0531 3.09189 14.8746 3.25546L5.43925 11.8896Z" fill="#6876F4"/>
</svg>
