<svg width="48" height="48" viewBox="0 0 48 48" fill="none" xmlns="http://www.w3.org/2000/svg">
<path d="M10.7422 13.5434C10.0558 13.5434 9.5 14.1766 9.5 14.9563C9.5 15.7361 10.0558 16.3693 10.7406 16.3693H37.2578C37.9442 16.3693 38.5 15.7361 38.5 14.9563C38.5 14.1766 37.9442 13.5434 37.2562 13.5434H33.1157C32.2618 13.5192 31.3596 12.9006 31.0696 11.9887L31.0212 11.8276L30.8376 11.1976L30.8314 11.1769C30.7196 10.7973 30.6224 10.4672 30.4863 10.1713C29.9434 8.98074 28.9332 8.15424 27.7684 7.94318C27.4736 7.89001 27.161 7.89001 26.8017 7.89001H21.1983C20.8406 7.89001 20.5281 7.89001 20.2316 7.94318C19.0668 8.15424 18.0582 8.98074 17.5137 10.1713C17.3762 10.4703 17.2784 10.8057 17.1667 11.1885L17.1641 11.1976L16.9788 11.8276L16.9304 11.9887C16.6404 12.9006 15.8881 13.5176 15.0358 13.5434H10.7422Z" fill="#949BA3"/>
<path fill-rule="evenodd" clip-rule="evenodd" d="M24.6509 40.1123H23.3491C18.8654 40.1123 16.6243 40.1123 15.1663 38.6848C13.7092 37.2599 13.5602 34.9195 13.2625 30.2439L12.8318 23.4872C12.6691 20.9465 12.5885 19.6769 13.3199 18.8714C14.0498 18.0658 15.2855 18.0658 17.7553 18.0658H30.2447C32.7145 18.0658 33.9486 18.0658 34.6801 18.8714C35.4099 19.6753 35.3293 20.9465 35.1682 23.4872L34.7375 30.2428C34.4398 34.9192 34.2909 37.2582 32.8353 38.6848C31.3757 40.1123 29.1346 40.1123 24.6509 40.1123ZM19.853 23.1666C20.5168 23.0973 21.1097 23.6064 21.1741 24.3057L21.9797 32.7849C22.0457 33.4842 21.5624 34.1077 20.897 34.1769C20.2332 34.2462 19.6403 33.7371 19.5759 33.0379L18.7703 24.5586C18.7043 23.8594 19.1876 23.2359 19.853 23.1666ZM29.2297 24.5586C29.2973 23.8594 28.8124 23.2359 28.1486 23.1666C27.4864 23.0973 26.8903 23.6064 26.8259 24.3057L26.0203 32.7849C25.9543 33.4842 26.4376 34.1077 27.103 34.1769C27.7652 34.2462 28.3597 33.7371 28.4241 33.0379L29.2297 24.5586Z" fill="#949BA3"/>
</svg>
