<svg width="48" height="48" viewBox="0 0 48 48" fill="none" xmlns="http://www.w3.org/2000/svg">
<path fill-rule="evenodd" clip-rule="evenodd" d="M10.9533 9.4338C9 11.3659 9 14.4778 9 20.7V27.3C9 33.5221 9 36.634 10.9533 38.5662C12.905 40.5 16.0483 40.5 22.3333 40.5H25.6667C31.9517 40.5 35.095 40.5 37.0467 38.5662C39 36.634 39 33.5221 39 27.3V20.7C39 14.4778 39 11.3659 37.0467 9.4338C35.095 7.5 31.9517 7.5 25.6667 7.5H22.3333C16.0483 7.5 12.905 7.5 10.9533 9.4338ZM16.0833 17.4C16.0833 17.0718 16.215 16.757 16.4494 16.525C16.6839 16.2929 17.0018 16.1625 17.3333 16.1625H30.6667C30.9982 16.1625 31.3161 16.2929 31.5506 16.525C31.785 16.757 31.9167 17.0718 31.9167 17.4C31.9167 17.7282 31.785 18.043 31.5506 18.275C31.3161 18.5071 30.9982 18.6375 30.6667 18.6375H17.3333C17.0018 18.6375 16.6839 18.5071 16.4494 18.275C16.215 18.043 16.0833 17.7282 16.0833 17.4ZM16.0833 24C16.0833 23.6718 16.215 23.357 16.4494 23.125C16.6839 22.8929 17.0018 22.7625 17.3333 22.7625H30.6667C30.9982 22.7625 31.3161 22.8929 31.5506 23.125C31.785 23.357 31.9167 23.6718 31.9167 24C31.9167 24.3282 31.785 24.643 31.5506 24.875C31.3161 25.1071 30.9982 25.2375 30.6667 25.2375H17.3333C17.0018 25.2375 16.6839 25.1071 16.4494 24.875C16.215 24.643 16.0833 24.3282 16.0833 24ZM17.3333 29.3625C17.0018 29.3625 16.6839 29.4929 16.4494 29.725C16.215 29.957 16.0833 30.2718 16.0833 30.6C16.0833 30.9282 16.215 31.243 16.4494 31.475C16.6839 31.7071 17.0018 31.8375 17.3333 31.8375H25.6667C25.9982 31.8375 26.3161 31.7071 26.5505 31.475C26.785 31.243 26.9167 30.9282 26.9167 30.6C26.9167 30.2718 26.785 29.957 26.5505 29.725C26.3161 29.4929 25.9982 29.3625 25.6667 29.3625H17.3333Z" fill="#616870"/>
</svg>
