<svg width="48" height="48" viewBox="0 0 48 48" fill="none" xmlns="http://www.w3.org/2000/svg">
<path d="M31.3846 7.5H16.6154C14.3312 7.50252 12.1413 8.43938 10.5261 10.105C8.91092 11.7707 8.00244 14.029 8 16.3846V31.6154C8.00244 33.971 8.91092 36.2293 10.5261 37.895C12.1413 39.5606 14.3312 40.4975 16.6154 40.5H31.3846C33.6688 40.4975 35.8587 39.5606 37.4739 37.895C39.0891 36.2293 39.9976 33.971 40 31.6154V16.3846C39.9976 14.029 39.0891 11.7707 37.4739 10.105C35.8587 8.43938 33.6688 7.50252 31.3846 7.5ZM24 31.6154C22.5395 31.6154 21.1117 31.1687 19.8973 30.332C18.6829 29.4952 17.7364 28.3058 17.1775 26.9143C16.6186 25.5228 16.4723 23.9916 16.7573 22.5143C17.0422 21.0371 17.7455 19.6801 18.7783 18.6151C19.811 17.5501 21.1269 16.8248 22.5593 16.5309C23.9918 16.2371 25.4766 16.3879 26.826 16.9643C28.1753 17.5407 29.3287 18.5168 30.1401 19.7691C30.9515 21.0215 31.3846 22.4938 31.3846 24C31.3826 26.0191 30.6039 27.9549 29.2195 29.3826C27.835 30.8103 25.9579 31.6133 24 31.6154ZM33.2308 16.3846C32.8656 16.3846 32.5087 16.273 32.2051 16.0638C31.9015 15.8546 31.6649 15.5572 31.5251 15.2093C31.3854 14.8615 31.3489 14.4787 31.4201 14.1093C31.4913 13.74 31.6672 13.4008 31.9253 13.1345C32.1835 12.8683 32.5125 12.687 32.8706 12.6135C33.2287 12.54 33.5999 12.5777 33.9373 12.7218C34.2746 12.8659 34.5629 13.11 34.7658 13.423C34.9686 13.7361 35.0769 14.1042 35.0769 14.4808C35.0769 14.9857 34.8824 15.47 34.5362 15.827C34.19 16.184 33.7204 16.3846 33.2308 16.3846ZM28.9231 24C28.9231 25.0041 28.6343 25.9857 28.0934 26.8206C27.5524 27.6555 26.7836 28.3062 25.884 28.6905C24.9844 29.0747 23.9945 29.1753 23.0396 28.9794C22.0846 28.7835 21.2074 28.2999 20.5189 27.5899C19.8304 26.8799 19.3615 25.9753 19.1715 24.9905C18.9816 24.0056 19.0791 22.9848 19.4517 22.0571C19.8243 21.1295 20.4553 20.3366 21.2649 19.7787C22.0745 19.2208 23.0263 18.9231 24 18.9231C25.3057 18.9231 26.5579 19.458 27.4811 20.4101C28.4044 21.3622 28.9231 22.6535 28.9231 24Z" fill="#505054"/>
</svg>
