<svg width="48" height="48" viewBox="0 0 48 48" fill="none" xmlns="http://www.w3.org/2000/svg">
<path d="M34.4494 7.5C37.6834 7.5 40.3235 10.0361 40.4918 13.2288L40.5 13.5505V34.4494C40.5 37.6834 37.964 40.3235 34.7712 40.4918L34.4494 40.5H13.5505C12.0015 40.5001 10.5114 39.906 9.38728 38.8402C8.26315 37.7744 7.59062 36.3181 7.50825 34.7712L7.5 34.4494V13.5505C7.5 10.3165 10.0361 7.67655 13.2288 7.50825L13.5505 7.5H34.4494ZM30.1165 19.5335C29.8071 19.2241 29.3875 19.0504 28.95 19.0504C28.5125 19.0504 28.0929 19.2241 27.7834 19.5335L22.35 24.9653L20.2165 22.8335L20.0615 22.6965C19.7298 22.4401 19.313 22.3195 18.8957 22.3592C18.4784 22.399 18.0918 22.5961 17.8146 22.9105C17.5373 23.225 17.3901 23.6331 17.4029 24.0522C17.4157 24.4712 17.5875 24.8696 17.8835 25.1665L21.1834 28.4665L21.3385 28.6035C21.656 28.8498 22.0524 28.9717 22.4534 28.9465C22.8544 28.9213 23.2324 28.7506 23.5166 28.4665L30.1165 21.8665L30.2535 21.7114C30.4998 21.394 30.6217 20.9976 30.5965 20.5966C30.5713 20.1956 30.4006 19.8176 30.1165 19.5335Z" fill="#6876F4"/>
</svg>
