<svg width="17" height="17" viewBox="0 0 17 17" fill="none" xmlns="http://www.w3.org/2000/svg">
<path fill-rule="evenodd" clip-rule="evenodd" d="M2.41156 1.4376C1.5 2.3744 1.5 3.8832 1.5 6.9V10.1C1.5 13.1168 1.5 14.6256 2.41156 15.5624C3.32233 16.5 4.78922 16.5 7.72222 16.5H9.27778C12.2108 16.5 13.6777 16.5 14.5884 15.5624C15.5 14.6256 15.5 13.1168 15.5 10.1V6.9C15.5 3.8832 15.5 2.3744 14.5884 1.4376C13.6777 0.5 12.2108 0.5 9.27778 0.5H7.72222C4.78922 0.5 3.32233 0.5 2.41156 1.4376ZM4.80556 5.3C4.80556 5.14087 4.86701 4.98826 4.97641 4.87574C5.08581 4.76321 5.23418 4.7 5.38889 4.7H11.6111C11.7658 4.7 11.9142 4.76321 12.0236 4.87574C12.133 4.98826 12.1944 5.14087 12.1944 5.3C12.1944 5.45913 12.133 5.61174 12.0236 5.72426C11.9142 5.83679 11.7658 5.9 11.6111 5.9H5.38889C5.23418 5.9 5.08581 5.83679 4.97641 5.72426C4.86701 5.61174 4.80556 5.45913 4.80556 5.3ZM4.80556 8.5C4.80556 8.34087 4.86701 8.18826 4.97641 8.07574C5.08581 7.96321 5.23418 7.9 5.38889 7.9H11.6111C11.7658 7.9 11.9142 7.96321 12.0236 8.07574C12.133 8.18826 12.1944 8.34087 12.1944 8.5C12.1944 8.65913 12.133 8.81174 12.0236 8.92426C11.9142 9.03679 11.7658 9.1 11.6111 9.1H5.38889C5.23418 9.1 5.08581 9.03679 4.97641 8.92426C4.86701 8.81174 4.80556 8.65913 4.80556 8.5ZM5.38889 11.1C5.23418 11.1 5.08581 11.1632 4.97641 11.2757C4.86701 11.3883 4.80556 11.5409 4.80556 11.7C4.80556 11.8591 4.86701 12.0117 4.97641 12.1243C5.08581 12.2368 5.23418 12.3 5.38889 12.3H9.27778C9.43249 12.3 9.58086 12.2368 9.69026 12.1243C9.79965 12.0117 9.86111 11.8591 9.86111 11.7C9.86111 11.5409 9.79965 11.3883 9.69026 11.2757C9.58086 11.1632 9.43249 11.1 9.27778 11.1H5.38889Z" fill="#616870"/>
</svg>
