<svg width="48" height="48" viewBox="0 0 48 48" fill="none" xmlns="http://www.w3.org/2000/svg">
<path fill-rule="evenodd" clip-rule="evenodd" d="M34.9467 7.61915L35.3962 7.67557C36.5845 7.83953 38.157 8.0599 39.0473 8.95198C39.7772 9.6801 40.0575 10.8648 40.2249 11.9226L40.3237 12.6031C40.5458 14.2075 40.604 16.309 40.2249 18.6432C39.4775 23.2499 37.0252 28.7469 30.8672 33.0028C30.8337 33.3342 30.8319 33.6692 30.839 34.0042L30.8566 34.5049C30.8848 35.2753 30.913 36.044 30.698 36.7932C30.363 37.9568 29.1695 38.7237 28.0535 39.2738L27.507 39.5329L26.8018 39.8432C25.4832 40.4039 23.7026 40.9786 22.5866 39.8609C21.9167 39.1927 21.6417 38.2125 21.4178 37.2375L21.3349 36.8726C21.2416 36.4118 21.1239 35.9563 20.9824 35.508C20.8942 35.2506 20.799 34.9879 20.6968 34.7235C20.5842 34.8616 20.4648 34.994 20.3389 35.1202C19.7307 35.7284 18.8227 36.1533 18.0752 36.4512C17.259 36.7739 16.3352 37.0559 15.4802 37.2887L15.0412 37.405L14.2003 37.6148L13.4387 37.7911L12.5272 37.985L11.9578 38.0961C11.6738 38.1487 11.3813 38.1314 11.1055 38.0457C10.8297 37.96 10.5788 37.8086 10.3746 37.6043C10.1704 37.4001 10.0189 37.1492 9.9332 36.8734C9.84753 36.5976 9.83024 36.3051 9.88282 36.0211L10.0344 35.2612L10.3059 34.0306L10.5245 33.1315L10.6903 32.4968C10.923 31.6435 11.205 30.7197 11.5294 29.9052C11.8256 29.1559 12.2505 28.248 12.8587 27.6398L12.9997 27.504L12.8869 27.4582C12.5856 27.3436 12.2804 27.2395 11.9719 27.1461L11.4836 26.9963C10.2601 26.626 8.95199 26.2276 8.13927 25.4131C7.15202 24.4276 7.48521 22.9273 7.96121 21.6791L8.15513 21.196L8.46718 20.4908L8.72633 19.9443C9.27637 18.8301 10.0433 17.6365 11.2068 17.3015C11.8238 17.1252 12.4655 17.1147 13.1108 17.1323L13.4986 17.1446C14.0028 17.1623 14.5053 17.1817 14.9971 17.1341C19.2529 10.9741 24.7498 8.52181 29.3564 7.7743C31.2043 7.47119 33.0847 7.41901 34.9467 7.61915ZM17.6486 29.9652C17.3711 29.7598 17.0395 29.6403 16.6949 29.6215C16.3502 29.6027 16.0075 29.6854 15.7094 29.8594L15.5154 29.9898L15.3515 30.1362L15.1311 30.4147C14.6728 31.0776 14.4118 31.9944 14.2091 32.8512L14.0187 33.6763L13.9288 34.0518L14.2655 33.9707L15.0024 33.8014C16.0214 33.5634 17.1515 33.2549 17.8461 32.629C18.1481 32.3272 18.3303 31.926 18.3588 31.4999C18.3873 31.0738 18.2603 30.6519 18.0012 30.3125L17.8566 30.1467L17.8143 30.1062L17.6486 29.9652ZM30.3119 17.67C29.9845 17.3425 29.5959 17.0827 29.1681 16.9054C28.7403 16.7282 28.2819 16.6369 27.8188 16.6368C27.3558 16.6367 26.8972 16.7278 26.4694 16.905C26.0416 17.0821 25.6529 17.3418 25.3254 17.6691C24.9979 17.9965 24.7381 18.3852 24.5608 18.8129C24.3836 19.2407 24.2923 19.6992 24.2922 20.1623C24.2921 20.6253 24.3832 21.0838 24.5604 21.5117C24.7375 21.9395 24.9971 22.3283 25.3245 22.6558C25.9856 23.3172 26.8824 23.6888 27.8176 23.689C28.7527 23.6891 29.6496 23.3178 30.311 22.6566C30.9724 21.9955 31.344 21.0987 31.3442 20.1635C31.3443 19.2283 30.973 18.3314 30.3119 17.67Z" fill="#6876F4"/>
</svg>
