<svg width="48" height="48" viewBox="0 0 48 48" fill="none" xmlns="http://www.w3.org/2000/svg">
<path d="M24 7.5C13.7787 7.5 5.5 15.0705 5.5 24.4173C5.5 31.9033 10.7956 38.2261 18.1494 40.4677C19.0744 40.6157 19.4213 40.1082 19.4213 39.6641C19.4213 39.2623 19.3981 37.9301 19.3981 36.5133C14.75 37.2957 13.5475 35.4771 13.1775 34.5255C12.9694 34.0391 12.0675 32.5377 11.2812 32.1359C10.6338 31.8187 9.70875 31.0363 11.2581 31.0151C12.715 30.994 13.7556 32.2416 14.1025 32.7491C15.7675 35.3079 18.4269 34.5889 19.4906 34.1448C19.6525 33.0452 20.1381 32.3051 20.67 31.8821C16.5538 31.4592 12.2525 30.0001 12.2525 23.5292C12.2525 21.6894 12.9694 20.1669 14.1488 18.9826C13.9638 18.5597 13.3162 16.8257 14.3337 14.4996C14.3337 14.4996 15.8831 14.0555 19.4213 16.2336C20.9013 15.8529 22.4738 15.6626 24.0463 15.6626C25.6188 15.6626 27.1913 15.8529 28.6713 16.2336C32.2094 14.0343 33.7588 14.4996 33.7588 14.4996C34.7763 16.8257 34.1288 18.5597 33.9438 18.9826C35.1231 20.1669 35.84 21.6683 35.84 23.5292C35.84 30.0212 31.5156 31.4592 27.3994 31.8821C28.07 32.4108 28.6481 33.4258 28.6481 35.0118C28.6481 37.2745 28.625 39.0931 28.625 39.6641C28.625 40.1082 28.9719 40.6369 29.8969 40.4677C33.5697 39.3342 36.7612 37.1759 39.0221 34.2966C41.283 31.4173 42.4994 27.962 42.5 24.4173C42.5 15.0705 34.2213 7.5 24 7.5Z" fill="#505054"/>
</svg>
