<svg width="48" height="48" viewBox="0 0 48 48" fill="none" xmlns="http://www.w3.org/2000/svg">
<path d="M4 24C4 18.4142 4 15.6213 4.78563 13.3761C6.1928 9.35464 9.35464 6.1928 13.3761 4.78563C15.6213 4 18.4142 4 24 4C29.5858 4 32.3787 4 34.6239 4.78563C38.6454 6.1928 41.8072 9.35464 43.2144 13.3761C44 15.6213 44 18.4142 44 24C44 29.5858 44 32.3787 43.2144 34.6239C41.8072 38.6454 38.6454 41.8072 34.6239 43.2144C32.3787 44 29.5858 44 24 44C18.4142 44 15.6213 44 13.3761 43.2144C9.35464 41.8072 6.1928 38.6454 4.78563 34.6239C4 32.3787 4 29.5858 4 24Z" fill="#F1F3F4"/>
<path d="M4.1011 17.8125C4 19.4978 4 21.606 4 24.4261C4 30.0119 4 32.8048 4.78563 35.05C6.1928 39.0715 9.35464 42.2333 13.3761 43.6405C15.6213 44.4261 18.4142 44.4261 24 44.4261C29.5858 44.4261 32.3787 44.4261 34.6239 43.6405C38.6454 42.2333 41.8072 39.0715 43.2144 35.05C44 32.8048 44 30.0119 44 24.4261C44 22.5378 44 20.9686 43.9696 19.6319C43.5999 19.2205 43.1727 18.8598 42.6986 18.562C41.4787 17.7959 39.8053 17.6457 36.4584 17.3453L13.352 15.2713C10.0051 14.9709 8.33169 14.8207 6.9949 15.3573C5.81902 15.8293 4.82276 16.6615 4.14889 17.7345C4.13269 17.7603 4.11676 17.7863 4.1011 17.8125Z" fill="#9DA6F6"/>
<path d="M43.9704 25.2834C43.9658 30.0275 43.9082 32.5576 43.1852 34.6239C41.778 38.6453 38.6162 41.8072 34.5947 43.2143C32.3495 44 29.5566 44 23.9708 44C18.385 44 15.5921 44 13.3469 43.2143C9.32545 41.8072 6.16362 38.6453 4.75645 34.6239C4.43597 33.708 4.24623 32.701 4.13388 31.4505C4.5722 30.3302 5.33784 29.3661 6.33294 28.6851C7.52171 27.8716 9.18793 27.6557 12.5204 27.2238L35.5912 24.2338C38.9236 23.8019 40.5899 23.586 41.9467 24.0695C42.6993 24.3378 43.3862 24.7519 43.9704 25.2834Z" fill="#6876F4"/>
<path d="M29.087 36.657L27.0159 34.7253C26.9043 34.6212 26.7529 34.5628 26.5951 34.5628C26.4373 34.5628 26.2859 34.6212 26.1743 34.7253C26.0627 34.8294 26 34.9706 26 35.1178C26 35.1907 26.0154 35.2628 26.0453 35.3302C26.0752 35.3975 26.119 35.4587 26.1743 35.5102L28.6692 37.8372C28.902 38.0543 29.278 38.0543 29.5108 37.8372L35.8257 31.9475C35.9373 31.8434 36 31.7022 36 31.555C36 31.4078 35.9373 31.2667 35.8257 31.1626C35.7141 31.0585 35.5627 31 35.4049 31C35.2471 31 35.0957 31.0585 34.9841 31.1626L29.087 36.657Z" fill="#FAFBFB"/>
</svg>
