<svg width="48" height="48" viewBox="0 0 48 48" fill="none" xmlns="http://www.w3.org/2000/svg">
<path d="M4 24C4 18.4142 4 15.6213 4.78563 13.3761C6.1928 9.35464 9.35464 6.1928 13.3761 4.78563C15.6213 4 18.4142 4 24 4C29.5858 4 32.3787 4 34.6239 4.78563C38.6454 6.1928 41.8072 9.35464 43.2144 13.3761C44 15.6213 44 18.4142 44 24C44 29.5858 44 32.3787 43.2144 34.6239C41.8072 38.6454 38.6454 41.8072 34.6239 43.2144C32.3787 44 29.5858 44 24 44C18.4142 44 15.6213 44 13.3761 43.2144C9.35464 41.8072 6.1928 38.6454 4.78563 34.6239C4 32.3787 4 29.5858 4 24Z" fill="#FAFBFB"/>
<path fill-rule="evenodd" clip-rule="evenodd" d="M29.1392 16.0614L29.3708 16.0904C29.9829 16.1749 30.793 16.2884 31.2516 16.748C31.6276 17.1231 31.772 17.7334 31.8583 18.2783L31.9092 18.6289C32.0236 19.4554 32.0536 20.538 31.8583 21.7404C31.4732 24.1136 30.2099 26.9454 27.0377 29.1378C27.0204 29.3086 27.0195 29.4811 27.0231 29.6537L27.0322 29.9116C27.0467 30.3085 27.0613 30.7045 26.9505 31.0905C26.7779 31.6899 26.1631 32.085 25.5882 32.3683L25.3067 32.5018L24.9434 32.6617C24.2641 32.9505 23.3468 33.2466 22.7719 32.6707C22.4268 32.3265 22.2851 31.8216 22.1698 31.3193L22.1271 31.1313C22.079 30.894 22.0184 30.6593 21.9455 30.4284C21.9 30.2958 21.851 30.1605 21.7983 30.0242C21.7404 30.0954 21.6788 30.1636 21.614 30.2286C21.3006 30.5419 20.8329 30.7608 20.4479 30.9143C20.0274 31.0805 19.5515 31.2258 19.111 31.3457L18.8849 31.4056L18.4517 31.5137L18.0593 31.6045L17.5898 31.7044L17.2965 31.7616C17.1502 31.7887 16.9995 31.7798 16.8574 31.7357C16.7153 31.6915 16.5861 31.6135 16.4808 31.5083C16.3756 31.4031 16.2976 31.2739 16.2535 31.1318C16.2093 30.9897 16.2004 30.839 16.2275 30.6927L16.3056 30.3012L16.4455 29.6673L16.5581 29.2041L16.6435 28.8771C16.7633 28.4376 16.9087 27.9617 17.0758 27.5421C17.2283 27.1561 17.4472 26.6884 17.7605 26.375L17.8332 26.3051L17.7751 26.2815C17.6199 26.2225 17.4626 26.1689 17.3037 26.1207L17.0521 26.0435C16.4219 25.8528 15.748 25.6476 15.3293 25.228C14.8207 24.7203 14.9924 23.9474 15.2376 23.3044L15.3375 23.0555L15.4982 22.6922L15.6317 22.4107C15.9151 21.8367 16.3102 21.2218 16.9096 21.0493C17.2274 20.9585 17.558 20.953 17.8904 20.9621L18.0902 20.9684C18.3499 20.9775 18.6088 20.9875 18.8622 20.963C21.0545 17.7897 23.8862 16.5264 26.2593 16.1413C27.2113 15.9852 28.18 15.9583 29.1392 16.0614ZM20.2281 27.573C20.0851 27.4672 19.9143 27.4056 19.7367 27.3959C19.5592 27.3862 19.3827 27.4288 19.2291 27.5185L19.1292 27.5857L19.0447 27.6611L18.9312 27.8046C18.6951 28.146 18.5606 28.6183 18.4562 29.0597L18.3581 29.4847L18.3118 29.6782L18.4853 29.6364L18.8649 29.5492C19.3898 29.4266 19.972 29.2677 20.3298 28.9453C20.4854 28.7898 20.5792 28.5831 20.5939 28.3636C20.6086 28.1441 20.5432 27.9267 20.4097 27.7519L20.3352 27.6665L20.3134 27.6456L20.2281 27.573ZM26.7516 21.2391C26.5829 21.0704 26.3827 20.9366 26.1624 20.8452C25.942 20.7539 25.7058 20.7069 25.4673 20.7068C25.2287 20.7068 24.9925 20.7537 24.7721 20.845C24.5517 20.9362 24.3515 21.07 24.1828 21.2386C24.0141 21.4073 23.8802 21.6075 23.7889 21.8279C23.6976 22.0482 23.6506 22.2844 23.6505 22.523C23.6505 22.7615 23.6974 22.9977 23.7887 23.2181C23.8799 23.4385 24.0137 23.6388 24.1823 23.8075C24.5229 24.1482 24.9849 24.3397 25.4666 24.3398C25.9484 24.3399 26.4104 24.1486 26.7511 23.808C27.0918 23.4674 27.2833 23.0054 27.2834 22.5236C27.2834 22.0419 27.0922 21.5798 26.7516 21.2391Z" fill="#6876F4"/>
</svg>
