<svg width="48" height="48" viewBox="0 0 48 48" fill="none" xmlns="http://www.w3.org/2000/svg">
<path d="M4 24C4 18.4142 4 15.6213 4.78563 13.3761C6.1928 9.35464 9.35464 6.1928 13.3761 4.78563C15.6213 4 18.4142 4 24 4C29.5858 4 32.3787 4 34.6239 4.78563C38.6454 6.1928 41.8072 9.35464 43.2144 13.3761C44 15.6213 44 18.4142 44 24C44 29.5858 44 32.3787 43.2144 34.6239C41.8072 38.6454 38.6454 41.8072 34.6239 43.2144C32.3787 44 29.5858 44 24 44C18.4142 44 15.6213 44 13.3761 43.2144C9.35464 41.8072 6.1928 38.6454 4.78563 34.6239C4 32.3787 4 29.5858 4 24Z" fill="#FAFBFB"/>
<path d="M29.5138 15.2936C31.2203 15.2936 32.6133 16.6317 32.7021 18.3164L32.7065 18.4862V29.5138C32.7065 31.2203 31.3683 32.6133 29.6836 32.7021L29.5138 32.7065H18.4862C17.6688 32.7065 16.8826 32.3931 16.2894 31.8307C15.6963 31.2683 15.3414 30.4998 15.2979 29.6836L15.2936 29.5138V18.4862C15.2936 16.7797 16.6317 15.3867 18.3164 15.2979L18.4862 15.2936H29.5138ZM27.2275 21.6432C27.0642 21.48 26.8428 21.3883 26.612 21.3883C26.3811 21.3883 26.1597 21.48 25.9964 21.6432L23.1294 24.5093L22.0036 23.3845L21.9218 23.3122C21.7468 23.1769 21.5269 23.1133 21.3067 23.1343C21.0865 23.1552 20.8825 23.2592 20.7362 23.4252C20.5899 23.5911 20.5122 23.8064 20.519 24.0275C20.5257 24.2486 20.6164 24.4589 20.7725 24.6156L22.5138 26.3569L22.5957 26.4291C22.7632 26.5591 22.9724 26.6234 23.184 26.6101C23.3955 26.5968 23.595 26.5068 23.7449 26.3569L27.2275 22.8743L27.2998 22.7924C27.4297 22.6249 27.4941 22.4157 27.4808 22.2042C27.4675 21.9926 27.3774 21.7931 27.2275 21.6432Z" fill="#6876F4"/>
</svg>
