<svg width="48" height="48" viewBox="0 0 48 48" fill="none" xmlns="http://www.w3.org/2000/svg">
<path d="M4 24C4 18.4142 4 15.6213 4.78563 13.3761C6.1928 9.35464 9.35464 6.1928 13.3761 4.78563C15.6213 4 18.4142 4 24 4C29.5858 4 32.3787 4 34.6239 4.78563C38.6454 6.1928 41.8072 9.35464 43.2144 13.3761C44 15.6213 44 18.4142 44 24C44 29.5858 44 32.3787 43.2144 34.6239C41.8072 38.6454 38.6454 41.8072 34.6239 43.2144C32.3787 44 29.5858 44 24 44C18.4142 44 15.6213 44 13.3761 43.2144C9.35464 41.8072 6.1928 38.6454 4.78563 34.6239C4 32.3787 4 29.5858 4 24Z" fill="#FAFBFB"/>
<path d="M15 18.5417C15 17.6024 15.3731 16.7015 16.0373 16.0373C16.7015 15.3731 17.6024 15 18.5417 15H28.4583C29.3976 15 30.2985 15.3731 30.9627 16.0373C31.6269 16.7015 32 17.6024 32 18.5417V28.4583C32 29.3976 31.6269 30.2985 30.9627 30.9627C30.2985 31.6269 29.3976 32 28.4583 32H18.5417C17.6024 32 16.7015 31.6269 16.0373 30.9627C15.3731 30.2985 15 29.3976 15 28.4583V18.5417ZM24.2083 27.0417C24.2083 27.2295 24.283 27.4097 24.4158 27.5425C24.5486 27.6754 24.7288 27.75 24.9167 27.75H28.1042C28.292 27.75 28.4722 27.6754 28.605 27.5425C28.7379 27.4097 28.8125 27.2295 28.8125 27.0417C28.8125 26.8538 28.7379 26.6736 28.605 26.5408C28.4722 26.408 28.292 26.3333 28.1042 26.3333H24.9167C24.7288 26.3333 24.5486 26.408 24.4158 26.5408C24.283 26.6736 24.2083 26.8538 24.2083 27.0417ZM24.9167 20.6667C24.7288 20.6667 24.5486 20.7413 24.4158 20.8741C24.283 21.007 24.2083 21.1871 24.2083 21.375C24.2083 21.5629 24.283 21.743 24.4158 21.8759C24.5486 22.0087 24.7288 22.0833 24.9167 22.0833H28.1042C28.292 22.0833 28.4722 22.0087 28.605 21.8759C28.7379 21.743 28.8125 21.5629 28.8125 21.375C28.8125 21.1871 28.7379 21.007 28.605 20.8741C28.4722 20.7413 28.292 20.6667 28.1042 20.6667H24.9167ZM22.5848 25.1235C22.519 25.0575 22.4409 25.0052 22.3548 24.9695C22.2688 24.9338 22.1765 24.9154 22.0833 24.9154C21.9902 24.9154 21.8979 24.9338 21.8119 24.9695C21.7258 25.0052 21.6476 25.0575 21.5818 25.1235L19.9583 26.7484L19.4002 26.1888C19.2673 26.0558 19.0871 25.981 18.8992 25.9809C18.7112 25.9808 18.5309 26.0553 18.3979 26.1881C18.2649 26.3209 18.1901 26.5012 18.1899 26.6891C18.1898 26.8771 18.2643 27.0574 18.3972 27.1904L19.4568 28.2515C19.5226 28.3175 19.6008 28.3698 19.6869 28.4055C19.7729 28.4412 19.8652 28.4596 19.9583 28.4596C20.0515 28.4596 20.1438 28.4412 20.2298 28.4055C20.3159 28.3698 20.394 28.3175 20.4598 28.2515L22.5848 26.1265C22.6508 26.0607 22.7031 25.9825 22.7388 25.8965C22.7746 25.8104 22.7929 25.7182 22.7929 25.625C22.7929 25.5318 22.7746 25.4396 22.7388 25.3535C22.7031 25.2675 22.6508 25.1893 22.5848 25.1235ZM22.5848 20.4598C22.6507 20.394 22.7029 20.3158 22.7386 20.2297C22.7742 20.1437 22.7926 20.0515 22.7926 19.9583C22.7926 19.8652 22.7742 19.773 22.7386 19.6869C22.7029 19.6009 22.6507 19.5227 22.5848 19.4568C22.519 19.391 22.4408 19.3387 22.3547 19.3031C22.2687 19.2674 22.1765 19.2491 22.0833 19.2491C21.9902 19.2491 21.898 19.2674 21.8119 19.3031C21.7259 19.3387 21.6477 19.391 21.5818 19.4568L19.9583 21.0818L19.4002 20.5222C19.2672 20.3892 19.0868 20.3144 18.8987 20.3144C18.7106 20.3144 18.5302 20.3892 18.3972 20.5222C18.2642 20.6552 18.1894 20.8356 18.1894 21.0237C18.1894 21.2118 18.2642 21.3922 18.3972 21.5252L19.4568 22.5848C19.5226 22.6508 19.6008 22.7031 19.6869 22.7388C19.7729 22.7746 19.8652 22.7929 19.9583 22.7929C20.0515 22.7929 20.1438 22.7746 20.2298 22.7388C20.3159 22.7031 20.394 22.6508 20.4598 22.5848L22.5848 20.4598Z" fill="#6876F4"/>
</svg>
